HIERARCHY
ROOT Pelvis
{
	OFFSET 0.000000 0.000000 0.000000
	CHANNELS 6 Xposition Yposition Zposition Zrotation Yrotation Xrotation 
	JOINT Left_hip
	{
		OFFSET 0.067986 -0.089946 -0.007639
		CHANNELS 3 Zrotation Yrotation Xrotation
		JOINT Left_knee
		{
			OFFSET 0.036308 -0.388288 -0.004016
			CHANNELS 3 Zrotation Yrotation Xrotation
			JOINT Left_ankle
			{
				OFFSET -0.012264 -0.413250 -0.042878
				CHANNELS 3 Zrotation Yrotation Xrotation
				JOINT Left_foot
				{
					OFFSET 0.024043 -0.058563 0.118570
					CHANNELS 3 Zrotation Yrotation Xrotation
					End Site
					{
						OFFSET 0.000000 0.000000 0.000000
					}
				}
			}
		}
	}
	JOINT Right_hip
	{
		OFFSET -0.065648 -0.089374 -0.003858
		CHANNELS 3 Zrotation Yrotation Xrotation
		JOINT Right_knee
		{
			OFFSET -0.042132 -0.395021 -0.006361
			CHANNELS 3 Zrotation Yrotation Xrotation
			JOINT Right_ankle
			{
				OFFSET 0.014805 -0.413264 -0.041054
				CHANNELS 3 Zrotation Yrotation Xrotation
				JOINT Right_foot
				{
					OFFSET -0.021758 -0.049013 0.121832
					CHANNELS 3 Zrotation Yrotation Xrotation
					End Site
					{
						OFFSET 0.000000 0.000000 0.000000
					}
				}
			}
		}
	}
	JOINT Spine1
	{
		OFFSET -0.002755 0.104406 -0.022277
		CHANNELS 3 Zrotation Yrotation Xrotation
		JOINT Spine2
		{
			OFFSET 0.004136 0.129393 -0.002186
			CHANNELS 3 Zrotation Yrotation Xrotation
			JOINT Spine3
			{
				OFFSET 0.001906 0.049304 0.025578
				CHANNELS 3 Zrotation Yrotation Xrotation
				JOINT Neck
				{
					OFFSET -0.004620 0.210958 -0.044063
					CHANNELS 3 Zrotation Yrotation Xrotation
					JOINT Head
					{
						OFFSET 0.003833 0.067393 0.052435
						CHANNELS 3 Zrotation Yrotation Xrotation
						End Site
						{
							OFFSET 0.000000 0.000000 0.000000
						}
					}
				}
				JOINT Left_collar
				{
					OFFSET 0.070771 0.116689 -0.037192
					CHANNELS 3 Zrotation Yrotation Xrotation
					JOINT Left_shoulder
					{
						OFFSET 0.080652 0.031596 -0.005617
						CHANNELS 3 Zrotation Yrotation Xrotation
						JOINT Left_elbow
						{
							OFFSET 0.262654 -0.015020 -0.027939
							CHANNELS 3 Zrotation Yrotation Xrotation
							JOINT Left_wrist
							{
								OFFSET 0.250438 0.010062 -0.000990
								CHANNELS 3 Zrotation Yrotation Xrotation
								JOINT Left_palm
								{
									OFFSET 0.081198 -0.010037 -0.013706
									CHANNELS 3 Zrotation Yrotation Xrotation
									End Site
									{
										OFFSET 0.000000 0.000000 0.000000
									}
								}
							}
						}
					}
				}
				JOINT Right_collar
				{
					OFFSET -0.072972 0.115556 -0.040762
					CHANNELS 3 Zrotation Yrotation Xrotation
					JOINT Right_shoulder
					{
						OFFSET -0.082917 0.031841 -0.006673
						CHANNELS 3 Zrotation Yrotation Xrotation
						JOINT Right_elbow
						{
							OFFSET -0.252882 -0.013790 -0.020410
							CHANNELS 3 Zrotation Yrotation Xrotation
							JOINT Right_wrist
							{
								OFFSET -0.255570 0.009163 -0.005138
								CHANNELS 3 Zrotation Yrotation Xrotation
								JOINT Right_palm
								{
									OFFSET -0.080804 -0.007282 -0.010415
									CHANNELS 3 Zrotation Yrotation Xrotation
									End Site
									{
										OFFSET 0.000000 0.000000 0.000000
									}
								}
							}
						}
					}
				}
			}
		}
	}
}
MOTION
Frames: 8
Frame Time: 0.100000
0.000000 0.000000 0.000000 173.967436 25.499933 -17.496006 8.473556 5.640111 9.038618 -4.039866 -15.463029 -4.729414 -8.040590 14.282237 -8.748438 5.968352 0.897992 0.457242 -5.996871 -7.605927 8.390615 6.020146 7.468087 -0.526102 13.683495 -15.541790 -11.984214 -9.989532 8.752107 2.470813 1.579507 1.663539 6.322084 0.693087 -2.722538 -0.230738 1.249191 -0.167613 3.531828 1.796268 6.059322 8.140465 -0.064510 2.637034 1.498114 -3.653441 5.156067 -8.253306 -2.220637 1.831805 -14.629454 2.444237 -5.287259 -8.072410 -2.092052 -4.883671 18.992264 -5.289107 -1.197029 -13.139911 4.153777 -4.312339 -6.865602 3.775802 -2.145621 -10.757863 -4.552395 7.037464 -8.483826 4.331120 0.934402 12.967300 5.683897 3.437195 -2.653731 
-0.000120 0.000003 0.000273 173.947877 25.537791 -17.502457 8.493366 5.633822 9.041048 -4.058492 -15.512513 -4.702964 -8.047136 14.286487 -8.798586 5.980380 0.921942 0.462843 -5.999135 -7.609629 8.392473 6.045313 7.485198 -0.468438 13.698477 -15.572608 -12.048965 -9.986315 8.751330 2.461480 1.575874 1.657087 6.302163 0.712889 -2.733225 -0.224173 1.266059 -0.180168 3.532697 1.846331 6.051604 8.152496 -0.040022 2.647020 1.470349 -3.674532 5.160600 -8.278361 -2.216051 1.831683 -14.661295 2.442466 -5.261641 -8.078981 -2.083191 -4.822183 19.073526 -5.288596 -1.202500 -13.160789 4.156235 -4.327102 -6.894375 3.774126 -2.175305 -10.749148 -4.542424 7.024230 -8.427272 4.372294 0.896623 13.061233 5.666608 3.442251 -2.652062 
-0.000124 -0.000012 0.000450 173.953008 25.533844 -17.479459 8.496687 5.633425 9.033917 -4.062111 -15.505436 -4.701111 -8.048300 14.284809 -8.804353 5.981372 0.916824 0.467740 -5.997894 -7.610387 8.393995 6.046849 7.483794 -0.486825 13.697980 -15.565798 -12.046477 -9.983086 8.746073 2.469920 1.579181 1.652669 6.302422 0.721570 -2.737831 -0.234144 1.273224 -0.184306 3.527284 1.860013 6.061359 8.134198 -0.038980 2.657326 1.467993 -3.690420 5.172872 -8.284597 -2.231932 1.833085 -14.653467 2.445316 -5.278015 -8.077109 -2.080130 -4.828690 19.058207 -5.296931 -1.207198 -13.164344 4.169851 -4.339777 -6.902208 3.764498 -2.171556 -10.766477 -4.560560 7.003659 -8.471134 4.356416 0.896016 13.047474 5.676684 3.443533 -2.657135 
-0.000016 -0.000039 0.000653 173.958427 25.492532 -17.439438 8.500992 5.645496 9.000154 -4.061740 -15.478866 -4.679247 -8.065395 14.294029 -8.832891 6.005877 0.908098 0.493732 -5.978815 -7.596519 8.359806 6.044241 7.495200 -0.489528 13.703537 -15.551011 -12.059018 -9.992620 8.733394 2.471433 1.576839 1.641515 6.344198 0.735482 -2.745610 -0.225753 1.289577 -0.190503 3.521785 1.860665 6.131343 8.029152 -0.064962 2.701508 1.389718 -3.696263 5.180486 -8.269250 -2.245611 1.900866 -14.609465 2.421807 -5.285036 -8.003390 -2.112062 -4.825103 19.098485 -5.307965 -1.216034 -13.217574 4.186555 -4.326634 -6.906686 3.755411 -2.140590 -10.778390 -4.549638 6.967996 -8.492034 4.352075 0.897455 13.040487 5.698970 3.442261 -2.685085 
0.000067 -0.000043 0.000622 173.942857 25.530448 -17.446782 8.491800 5.644237 8.911863 -4.069673 -15.493356 -4.537926 -8.060784 14.295944 -8.888372 5.997227 0.927153 0.540029 -5.979097 -7.592259 8.351894 6.060566 7.509683 -0.477887 13.761322 -15.585878 -12.051046 -10.051240 8.776434 2.441662 1.516726 1.663079 6.496479 0.747865 -2.774095 -0.207703 1.313608 -0.211939 3.528338 1.894541 6.209656 7.900968 -0.029537 2.734717 1.283944 -3.684252 5.102243 -8.260986 -2.097932 1.964450 -14.638449 2.420670 -5.310763 -7.955225 -2.046871 -4.848121 19.273359 -5.333168 -1.244367 -13.278094 4.212274 -4.308829 -6.925926 3.718720 -2.237450 -10.770167 -4.591610 7.007305 -8.480301 4.291971 0.921957 13.146942 5.744965 3.465065 -2.723068 
-0.000327 0.000065 -0.000980 173.932304 25.399944 -17.519161 8.410145 5.702271 8.761873 -4.099642 -15.489933 -4.221337 -8.010861 14.347569 -8.973292 6.009564 1.035588 0.566956 -5.946554 -7.482997 8.005826 6.023482 7.567616 0.091273 13.854717 -15.675775 -12.070145 -10.186368 8.839723 2.255456 1.453376 1.638130 6.948053 0.741935 -2.758713 -0.101555 1.336277 -0.209147 3.568612 1.984333 6.157482 7.651820 0.081481 2.637808 0.997642 -3.719911 4.971229 -8.196607 -2.005484 2.205469 -14.568614 2.334269 -5.378588 -7.790281 -1.910759 -4.784503 19.592964 -5.403995 -1.308599 -13.513552 4.218589 -4.112663 -6.931946 3.758873 -2.303071 -10.768822 -4.617544 7.171277 -8.574646 4.130340 0.889868 13.264674 5.839495 3.516890 -2.886821 
-0.001442 0.000428 -0.003624 173.851903 25.048531 -17.478840 8.418669 5.753737 8.615372 -4.156596 -15.347785 -4.226257 -7.870785 14.421480 -8.997036 5.872521 1.099964 0.718397 -5.882084 -7.496668 7.745841 5.947613 7.541015 0.025363 13.898687 -15.536164 -11.726710 -10.137574 8.774757 2.176699 1.367593 1.694578 7.326568 0.705571 -2.698811 0.006134 1.366834 -0.138284 3.595121 2.133874 5.951830 7.664897 0.391110 2.469433 0.775165 -3.728436 4.955357 -8.220349 -1.944026 2.340635 -14.614805 2.502878 -5.555781 -7.913372 -1.619297 -4.770491 19.792217 -5.475236 -1.386193 -13.615355 4.158405 -3.989889 -6.854388 3.908862 -2.359097 -10.773859 -4.714978 7.312340 -8.447239 3.919221 0.893249 13.444062 5.958804 3.601545 -3.011115 
-0.003428 0.000762 -0.006435 173.790210 24.722512 -17.303598 8.299586 5.756134 8.267708 -4.231495 -15.120385 -4.088613 -7.587779 14.473727 -9.036174 5.690545 1.251997 0.731895 -5.887098 -7.473677 7.455933 5.827410 7.625197 -0.217408 14.119404 -15.469033 -11.307349 -10.395129 8.793009 1.936093 1.214439 1.821669 7.546357 0.615025 -2.550135 0.010629 1.328962 -0.070877 3.699929 2.164025 5.530777 7.693816 0.664915 2.167373 0.580293 -3.804654 5.365383 -8.184376 -2.134866 2.472922 -14.642052 3.164125 -6.541315 -8.285006 -0.507891 -4.827629 19.515351 -5.795859 -1.599272 -13.645593 4.216681 -4.261548 -6.798083 4.297314 -2.612223 -10.689602 -5.331327 8.166398 -8.921785 2.826195 1.076704 13.392792 6.450602 3.807148 -3.305146 
